<svg width="126" height="32" viewBox="0 0 126 32" fill="none" xmlns="http://www.w3.org/2000/svg">
<path d="M1.09579 3.6177V6.39048H4.15436V7.283H1.09579V10.1391H4.5156V11.0316H0V2.72518H4.5156V3.6177H1.09579ZM3.31144 0.940126L0.74658 2.29676V1.48754L3.31144 0V0.940126Z" fill="#1E1E1E"/>
<path d="M5.40301 7.75902C5.40301 7.08467 5.53948 6.49758 5.81243 5.99777C6.08537 5.49002 6.46267 5.09731 6.94434 4.81964C7.43403 4.54196 7.99196 4.40312 8.61812 4.40312C9.42892 4.40312 10.0952 4.5975 10.617 4.98624C11.1469 5.37498 11.4961 5.91447 11.6646 6.60469H10.4846C10.3722 6.20801 10.1514 5.89463 9.82228 5.66456C9.50117 5.43449 9.09979 5.31945 8.61812 5.31945C7.99196 5.31945 7.48621 5.53366 7.10088 5.96207C6.71555 6.38255 6.52288 6.98153 6.52288 7.75902C6.52288 8.54444 6.71555 9.15136 7.10088 9.57977C7.48621 10.0082 7.99196 10.2224 8.61812 10.2224C9.09979 10.2224 9.50117 10.1113 9.82228 9.88918C10.1434 9.66704 10.3642 9.3497 10.4846 8.93715H11.6646C11.488 9.60357 11.1348 10.1391 10.605 10.5437C10.0752 10.9404 9.41287 11.1387 8.61812 11.1387C7.99196 11.1387 7.43403 10.9999 6.94434 10.7222C6.46267 10.4445 6.08537 10.0518 5.81243 9.54407C5.53948 9.03632 5.40301 8.4413 5.40301 7.75902Z" fill="#1E1E1E"/>
<path d="M15.6435 11.1387C15.0253 11.1387 14.4634 10.9999 13.9576 10.7222C13.4599 10.4445 13.0666 10.0518 12.7776 9.54407C12.4966 9.02839 12.3561 8.43337 12.3561 7.75902C12.3561 7.0926 12.5006 6.50552 12.7896 5.99777C13.0866 5.48209 13.488 5.08938 13.9938 4.81964C14.4995 4.54196 15.0655 4.40312 15.6916 4.40312C16.3178 4.40312 16.8837 4.54196 17.3895 4.81964C17.8952 5.08938 18.2926 5.47812 18.5816 5.98587C18.8786 6.49362 19.0272 7.08467 19.0272 7.75902C19.0272 8.43337 18.8746 9.02839 18.5696 9.54407C18.2725 10.0518 17.8671 10.4445 17.3534 10.7222C16.8396 10.9999 16.2696 11.1387 15.6435 11.1387ZM15.6435 10.1867C16.0368 10.1867 16.4061 10.0955 16.7513 9.91298C17.0965 9.73051 17.3734 9.4568 17.5822 9.09186C17.7989 8.72691 17.9073 8.28263 17.9073 7.75902C17.9073 7.2354 17.8029 6.79112 17.5942 6.42618C17.3855 6.06124 17.1125 5.7915 16.7754 5.61696C16.4382 5.43449 16.0729 5.34325 15.6796 5.34325C15.2782 5.34325 14.9089 5.43449 14.5718 5.61696C14.2426 5.7915 13.9777 6.06124 13.777 6.42618C13.5763 6.79112 13.476 7.2354 13.476 7.75902C13.476 8.29057 13.5723 8.73881 13.765 9.10376C13.9657 9.4687 14.2306 9.74241 14.5597 9.92488C14.8889 10.0994 15.2501 10.1867 15.6435 10.1867Z" fill="#1E1E1E"/>
<path d="M21.2024 2.22536V11.0316H20.1067V2.22536H21.2024Z" fill="#1E1E1E"/>
<path d="M28.7296 7.52101C28.7296 7.72728 28.7175 7.94546 28.6935 8.17553H23.4192C23.4594 8.81815 23.6801 9.32193 24.0815 9.68687C24.4909 10.0439 24.9846 10.2224 25.5626 10.2224C26.0363 10.2224 26.4296 10.1153 26.7427 9.90108C27.0638 9.67894 27.2886 9.3854 27.417 9.02045H28.5971C28.4205 9.64721 28.0673 10.1589 27.5375 10.5556C27.0076 10.9443 26.3494 11.1387 25.5626 11.1387C24.9365 11.1387 24.3745 10.9999 23.8768 10.7222C23.3871 10.4445 23.0018 10.0518 22.7208 9.54407C22.4398 9.02839 22.2994 8.43337 22.2994 7.75902C22.2994 7.08467 22.4358 6.49362 22.7088 5.98587C22.9817 5.47812 23.363 5.08938 23.8527 4.81964C24.3505 4.54196 24.9204 4.40312 25.5626 4.40312C26.1888 4.40312 26.7427 4.53799 27.2244 4.80774C27.706 5.07748 28.0753 5.45035 28.3322 5.92637C28.5971 6.39445 28.7296 6.926 28.7296 7.52101ZM27.5977 7.29491C27.5977 6.88236 27.5054 6.52932 27.3207 6.23577C27.1361 5.9343 26.8832 5.70819 26.5621 5.55746C26.249 5.39879 25.8998 5.31945 25.5145 5.31945C24.9606 5.31945 24.4869 5.49399 24.0936 5.84306C23.7082 6.19214 23.4875 6.67609 23.4313 7.29491H27.5977Z" fill="#1E1E1E"/>
<path d="M33.7596 2.73708V11.0316H32.6638V2.73708H33.7596Z" fill="#1E1E1E"/>
<path d="M38.481 4.39122C39.2838 4.39122 39.934 4.6332 40.4318 5.11714C40.9295 5.59316 41.1783 6.28338 41.1783 7.1878V11.0316H40.0946V7.34251C40.0946 6.69195 39.93 6.19611 39.6009 5.85496C39.2718 5.50589 38.8222 5.33135 38.2522 5.33135C37.6742 5.33135 37.2126 5.50985 36.8675 5.86687C36.5303 6.22388 36.3617 6.74352 36.3617 7.42581V11.0316H35.2659V4.51023H36.3617V5.43845C36.5785 5.10524 36.8715 4.8474 37.2407 4.66493C37.618 4.48246 38.0315 4.39122 38.481 4.39122Z" fill="#1E1E1E"/>
<path d="M43.9437 5.40275V9.24656C43.9437 9.5639 44.0119 9.79001 44.1484 9.92488C44.2849 10.0518 44.5217 10.1153 44.8588 10.1153H45.6656V11.0316H44.6782C44.0681 11.0316 43.6105 10.8928 43.3055 10.6151C43.0004 10.3374 42.8479 9.88124 42.8479 9.24656V5.40275H41.9929V4.51023H42.8479V2.86798H43.9437V4.51023H45.6656V5.40275H43.9437Z" fill="#1E1E1E"/>
<path d="M52.6529 7.52101C52.6529 7.72728 52.6408 7.94546 52.6167 8.17553H47.3425C47.3827 8.81815 47.6034 9.32193 48.0048 9.68687C48.4142 10.0439 48.9079 10.2224 49.4859 10.2224C49.9596 10.2224 50.3529 10.1153 50.666 9.90108C50.9871 9.67894 51.2119 9.3854 51.3403 9.02045H52.5204C52.3438 9.64721 51.9906 10.1589 51.4608 10.5556C50.9309 10.9443 50.2726 11.1387 49.4859 11.1387C48.8598 11.1387 48.2978 10.9999 47.8001 10.7222C47.3104 10.4445 46.9251 10.0518 46.6441 9.54407C46.3631 9.02839 46.2226 8.43337 46.2226 7.75902C46.2226 7.08467 46.3591 6.49362 46.6321 5.98587C46.905 5.47812 47.2863 5.08938 47.776 4.81964C48.2737 4.54196 48.8437 4.40312 49.4859 4.40312C50.1121 4.40312 50.666 4.53799 51.1477 4.80774C51.6293 5.07748 51.9986 5.45035 52.2555 5.92637C52.5204 6.39445 52.6529 6.926 52.6529 7.52101ZM51.521 7.29491C51.521 6.88236 51.4286 6.52932 51.244 6.23577C51.0594 5.9343 50.8065 5.70819 50.4854 5.55746C50.1723 5.39879 49.8231 5.31945 49.4378 5.31945C48.8838 5.31945 48.4102 5.49399 48.0169 5.84306C47.6315 6.19214 47.4108 6.67609 47.3546 7.29491H51.521Z" fill="#1E1E1E"/>
<path d="M54.8338 5.56936C55.0265 5.19648 55.2994 4.9069 55.6526 4.70063C56.0139 4.49436 56.4514 4.39122 56.9652 4.39122V5.50985H56.6762C55.4479 5.50985 54.8338 6.16834 54.8338 7.48531V11.0316H53.738V4.51023H54.8338V5.56936Z" fill="#1E1E1E"/>
<path d="M61.084 4.39122C61.8867 4.39122 62.537 4.6332 63.0347 5.11714C63.5324 5.59316 63.7813 6.28338 63.7813 7.1878V11.0316H62.6975V7.34251C62.6975 6.69195 62.533 6.19611 62.2038 5.85496C61.8747 5.50589 61.4252 5.33135 60.8552 5.33135C60.2772 5.33135 59.8156 5.50985 59.4704 5.86687C59.1332 6.22388 58.9646 6.74352 58.9646 7.42581V11.0316H57.8689V4.51023H58.9646V5.43845C59.1814 5.10524 59.4744 4.8474 59.8437 4.66493C60.221 4.48246 60.6344 4.39122 61.084 4.39122Z" fill="#1E1E1E"/>
<path d="M64.8006 7.74712C64.8006 7.0807 64.9371 6.49758 65.21 5.99777C65.483 5.49002 65.8562 5.09731 66.3299 4.81964C66.8115 4.54196 67.3454 4.40312 67.9314 4.40312C68.5094 4.40312 69.0111 4.52609 69.4366 4.77203C69.8621 5.01797 70.1792 5.32738 70.3879 5.70026V4.51023H71.4957V11.0316H70.3879V9.81778C70.1712 10.1986 69.846 10.5159 69.4125 10.7698C68.9871 11.0157 68.4893 11.1387 67.9194 11.1387C67.3333 11.1387 66.8035 10.9959 66.3299 10.7103C65.8562 10.4247 65.483 10.024 65.21 9.50837C64.9371 8.99269 64.8006 8.4056 64.8006 7.74712ZM70.3879 7.75902C70.3879 7.26714 70.2876 6.83873 70.0869 6.47378C69.8862 6.10884 69.6132 5.83116 69.268 5.64076C68.9309 5.44242 68.5576 5.34325 68.1482 5.34325C67.7387 5.34325 67.3655 5.43845 67.0283 5.62886C66.6911 5.81926 66.4222 6.09694 66.2215 6.46188C66.0208 6.82683 65.9205 7.25524 65.9205 7.74712C65.9205 8.24693 66.0208 8.68328 66.2215 9.05615C66.4222 9.4211 66.6911 9.70274 67.0283 9.90108C67.3655 10.0915 67.7387 10.1867 68.1482 10.1867C68.5576 10.1867 68.9309 10.0915 69.268 9.90108C69.6132 9.70274 69.8862 9.4211 70.0869 9.05615C70.2876 8.68328 70.3879 8.2509 70.3879 7.75902Z" fill="#1E1E1E"/>
<path d="M74.3229 5.40275V9.24656C74.3229 9.5639 74.3911 9.79001 74.5276 9.92488C74.6641 10.0518 74.9009 10.1153 75.238 10.1153H76.0448V11.0316H75.0574C74.4473 11.0316 73.9897 10.8928 73.6847 10.6151C73.3796 10.3374 73.2271 9.88124 73.2271 9.24656V5.40275H72.3721V4.51023H73.2271V2.86798H74.3229V4.51023H76.0448V5.40275H74.3229Z" fill="#1E1E1E"/>
<path d="M77.5772 3.4511C77.3685 3.4511 77.1919 3.3797 77.0474 3.23689C76.9029 3.09409 76.8306 2.91955 76.8306 2.71328C76.8306 2.507 76.9029 2.33247 77.0474 2.18966C77.1919 2.04686 77.3685 1.97546 77.5772 1.97546C77.7779 1.97546 77.9465 2.04686 78.083 2.18966C78.2275 2.33247 78.2997 2.507 78.2997 2.71328C78.2997 2.91955 78.2275 3.09409 78.083 3.23689C77.9465 3.3797 77.7779 3.4511 77.5772 3.4511ZM78.107 4.51023V11.0316H77.0113V4.51023H78.107Z" fill="#1E1E1E"/>
<path d="M82.4913 11.1387C81.8732 11.1387 81.3112 10.9999 80.8055 10.7222C80.3078 10.4445 79.9144 10.0518 79.6254 9.54407C79.3444 9.02839 79.204 8.43337 79.204 7.75902C79.204 7.0926 79.3485 6.50552 79.6375 5.99777C79.9345 5.48209 80.3359 5.08938 80.8416 4.81964C81.3474 4.54196 81.9133 4.40312 82.5395 4.40312C83.1656 4.40312 83.7316 4.54196 84.2374 4.81964C84.7431 5.08938 85.1405 5.47812 85.4295 5.98587C85.7265 6.49362 85.875 7.08467 85.875 7.75902C85.875 8.43337 85.7225 9.02839 85.4174 9.54407C85.1204 10.0518 84.715 10.4445 84.2012 10.7222C83.6874 10.9999 83.1175 11.1387 82.4913 11.1387ZM82.4913 10.1867C82.8847 10.1867 83.254 10.0955 83.5991 9.91298C83.9443 9.73051 84.2213 9.4568 84.43 9.09186C84.6468 8.72691 84.7551 8.28263 84.7551 7.75902C84.7551 7.2354 84.6508 6.79112 84.4421 6.42618C84.2333 6.06124 83.9604 5.7915 83.6232 5.61696C83.2861 5.43449 82.9208 5.34325 82.5274 5.34325C82.1261 5.34325 81.7568 5.43449 81.4196 5.61696C81.0905 5.7915 80.8256 6.06124 80.6249 6.42618C80.4242 6.79112 80.3238 7.2354 80.3238 7.75902C80.3238 8.29057 80.4202 8.73881 80.6128 9.10376C80.8135 9.4687 81.0784 9.74241 81.4076 9.92488C81.7367 10.0994 82.098 10.1867 82.4913 10.1867Z" fill="#1E1E1E"/>
<path d="M90.1696 4.39122C90.9724 4.39122 91.6227 4.6332 92.1204 5.11714C92.6181 5.59316 92.8669 6.28338 92.8669 7.1878V11.0316H91.7832V7.34251C91.7832 6.69195 91.6186 6.19611 91.2895 5.85496C90.9604 5.50589 90.5108 5.33135 89.9408 5.33135C89.3628 5.33135 88.9012 5.50985 88.5561 5.86687C88.2189 6.22388 88.0503 6.74352 88.0503 7.42581V11.0316H86.9545V4.51023H88.0503V5.43845C88.2671 5.10524 88.5601 4.8474 88.9293 4.66493C89.3066 4.48246 89.7201 4.39122 90.1696 4.39122Z" fill="#1E1E1E"/>
<path d="M93.8863 7.74712C93.8863 7.0807 94.0227 6.49758 94.2957 5.99777C94.5686 5.49002 94.9419 5.09731 95.4155 4.81964C95.8972 4.54196 96.431 4.40312 97.0171 4.40312C97.5951 4.40312 98.0968 4.52609 98.5223 4.77203C98.9477 5.01797 99.2648 5.32738 99.4736 5.70026V4.51023H100.581V11.0316H99.4736V9.81778C99.2568 10.1986 98.9317 10.5159 98.4982 10.7698C98.0727 11.0157 97.575 11.1387 97.005 11.1387C96.419 11.1387 95.8892 10.9959 95.4155 10.7103C94.9419 10.4247 94.5686 10.024 94.2957 9.50837C94.0227 8.99269 93.8863 8.4056 93.8863 7.74712ZM99.4736 7.75902C99.4736 7.26714 99.3732 6.83873 99.1725 6.47378C98.9718 6.10884 98.6989 5.83116 98.3537 5.64076C98.0165 5.44242 97.6432 5.34325 97.2338 5.34325C96.8244 5.34325 96.4511 5.43845 96.1139 5.62886C95.7768 5.81926 95.5079 6.09694 95.3072 6.46188C95.1065 6.82683 95.0061 7.25524 95.0061 7.74712C95.0061 8.24693 95.1065 8.68328 95.3072 9.05615C95.5079 9.4211 95.7768 9.70274 96.1139 9.90108C96.4511 10.0915 96.8244 10.1867 97.2338 10.1867C97.6432 10.1867 98.0165 10.0915 98.3537 9.90108C98.6989 9.70274 98.9718 9.4211 99.1725 9.05615C99.3732 8.68328 99.4736 8.2509 99.4736 7.75902Z" fill="#1E1E1E"/>
<path d="M103.168 2.22536V11.0316H102.072V2.22536H103.168Z" fill="#1E1E1E"/>
<path d="M110.695 7.52101C110.695 7.72728 110.683 7.94546 110.659 8.17553H105.384C105.425 8.81815 105.645 9.32193 106.047 9.68687C106.456 10.0439 106.95 10.2224 107.528 10.2224C108.002 10.2224 108.395 10.1153 108.708 9.90108C109.029 9.67894 109.254 9.3854 109.382 9.02045H110.562C110.386 9.64721 110.033 10.1589 109.503 10.5556C108.973 10.9443 108.315 11.1387 107.528 11.1387C106.902 11.1387 106.34 10.9999 105.842 10.7222C105.352 10.4445 104.967 10.0518 104.686 9.54407C104.405 9.02839 104.265 8.43337 104.265 7.75902C104.265 7.08467 104.401 6.49362 104.674 5.98587C104.947 5.47812 105.328 5.08938 105.818 4.81964C106.316 4.54196 106.886 4.40312 107.528 4.40312C108.154 4.40312 108.708 4.53799 109.19 4.80774C109.671 5.07748 110.041 5.45035 110.297 5.92637C110.562 6.39445 110.695 6.926 110.695 7.52101ZM109.563 7.29491C109.563 6.88236 109.471 6.52932 109.286 6.23577C109.101 5.9343 108.848 5.70819 108.527 5.55746C108.214 5.39879 107.865 5.31945 107.48 5.31945C106.926 5.31945 106.452 5.49399 106.059 5.84306C105.673 6.19214 105.453 6.67609 105.397 7.29491H109.563Z" fill="#1E1E1E"/>
<path d="M6.20143 31.8572L3.53622 27.3351H1.77012V31.8572H0.309068V20.7978H3.92155C4.76714 20.7978 5.47893 20.9406 6.05693 21.2262C6.64563 21.5118 7.08448 21.8979 7.37348 22.3845C7.66248 22.8711 7.80698 23.4265 7.80698 24.0506C7.80698 24.8122 7.5822 25.4839 7.13265 26.0657C6.6938 26.6475 6.03017 27.0336 5.14177 27.224L7.95148 31.8572H6.20143ZM1.77012 26.1768H3.92155C4.71362 26.1768 5.30767 25.9864 5.70371 25.6056C6.09974 25.2142 6.29776 24.6958 6.29776 24.0506C6.29776 23.3947 6.09974 22.887 5.70371 22.5273C5.31838 22.1677 4.72432 21.9879 3.92155 21.9879H1.77012V26.1768Z" fill="#1E1E1E"/>
<path d="M13.4328 32C12.6086 32 11.8594 31.8149 11.185 31.4447C10.5214 31.0744 9.99692 30.5508 9.61159 29.8738C9.23696 29.1862 9.04965 28.3929 9.04965 27.4937C9.04965 26.6052 9.24231 25.8224 9.62764 25.1454C10.0237 24.4578 10.5589 23.9342 11.2332 23.5746C11.9075 23.2043 12.6621 23.0192 13.497 23.0192C14.3319 23.0192 15.0865 23.2043 15.7608 23.5746C16.4352 23.9342 16.965 24.4525 17.3503 25.1295C17.7464 25.8065 17.9444 26.5946 17.9444 27.4937C17.9444 28.3929 17.741 29.1862 17.3343 29.8738C16.9382 30.5508 16.3977 31.0744 15.7127 31.4447C15.0276 31.8149 14.2677 32 13.4328 32ZM13.4328 30.7306C13.9573 30.7306 14.4496 30.609 14.9099 30.3657C15.3702 30.1224 15.7394 29.7574 16.0177 29.2709C16.3067 28.7843 16.4512 28.1919 16.4512 27.4937C16.4512 26.7956 16.3121 26.2032 16.0338 25.7166C15.7555 25.23 15.3916 24.8704 14.942 24.6377C14.4925 24.3944 14.0054 24.2727 13.481 24.2727C12.9458 24.2727 12.4534 24.3944 12.0039 24.6377C11.565 24.8704 11.2118 25.23 10.9442 25.7166C10.6766 26.2032 10.5428 26.7956 10.5428 27.4937C10.5428 28.2025 10.6712 28.8001 10.9281 29.2867C11.1957 29.7733 11.5489 30.1383 11.9878 30.3816C12.4266 30.6143 12.9083 30.7306 13.4328 30.7306Z" fill="#1E1E1E"/>
<path d="M20.8448 24.7805C21.1445 24.2621 21.5833 23.839 22.1613 23.5111C22.7393 23.1832 23.3976 23.0192 24.1362 23.0192C24.9282 23.0192 25.64 23.2043 26.2715 23.5746C26.903 23.9448 27.4008 24.4684 27.7647 25.1454C28.1286 25.8118 28.3106 26.5893 28.3106 27.4779C28.3106 28.3559 28.1286 29.1386 27.7647 29.8262C27.4008 30.5138 26.8977 31.048 26.2555 31.4288C25.624 31.8096 24.9175 32 24.1362 32C23.3762 32 22.7072 31.836 22.1292 31.5081C21.5619 31.1802 21.1338 30.7624 20.8448 30.2546V31.8572H19.3837V20.1155H20.8448V24.7805ZM26.8174 27.4779C26.8174 26.822 26.6836 26.2508 26.416 25.7642C26.1484 25.2776 25.7845 24.9074 25.3243 24.6535C24.8747 24.3997 24.377 24.2727 23.8311 24.2727C23.2959 24.2727 22.7982 24.4049 22.3379 24.6694C21.8884 24.9233 21.5245 25.2988 21.2462 25.796C20.9786 26.2826 20.8448 26.8485 20.8448 27.4937C20.8448 28.1496 20.9786 28.7261 21.2462 29.2233C21.5245 29.7098 21.8884 30.0854 22.3379 30.3498C22.7982 30.6037 23.2959 30.7306 23.8311 30.7306C24.377 30.7306 24.8747 30.6037 25.3243 30.3498C25.7845 30.0854 26.1484 29.7098 26.416 29.2233C26.6836 28.7261 26.8174 28.1443 26.8174 27.4779Z" fill="#1E1E1E"/>
<path d="M37.7798 27.1764C37.7798 27.4514 37.7637 27.7423 37.7316 28.0491H30.6993C30.7528 28.9059 31.0472 29.5776 31.5824 30.0642C32.1283 30.5402 32.7865 30.7782 33.5572 30.7782C34.1887 30.7782 34.7132 30.6354 35.1306 30.3498C35.5588 30.0536 35.8585 29.6622 36.0297 29.1757H37.6032C37.3677 30.0113 36.8967 30.6936 36.1903 31.2225C35.4839 31.7408 34.6062 32 33.5572 32C32.7223 32 31.9731 31.8149 31.3094 31.4447C30.6565 31.0744 30.1427 30.5508 29.7681 29.8738C29.3935 29.1862 29.2062 28.3929 29.2062 27.4937C29.2062 26.5946 29.3881 25.8065 29.7521 25.1295C30.116 24.4525 30.6244 23.9342 31.2773 23.5746C31.9409 23.2043 32.7009 23.0192 33.5572 23.0192C34.3921 23.0192 35.1306 23.199 35.7729 23.5587C36.4151 23.9184 36.9074 24.4155 37.25 25.0502C37.6032 25.6743 37.7798 26.383 37.7798 27.1764ZM36.2706 26.8749C36.2706 26.3249 36.1475 25.8541 35.9013 25.4627C35.6551 25.0608 35.318 24.7593 34.8898 24.5583C34.4724 24.3468 34.0068 24.241 33.493 24.241C32.7544 24.241 32.1229 24.4737 31.5984 24.9391C31.0847 25.4046 30.7903 26.0498 30.7154 26.8749H36.2706Z" fill="#1E1E1E"/>
<path d="M40.6877 24.5742C40.9446 24.077 41.3085 23.6909 41.7795 23.4159C42.2612 23.1409 42.8445 23.0033 43.5295 23.0033V24.4949H43.1442C41.5065 24.4949 40.6877 25.3728 40.6877 27.1288V31.8572H39.2267V23.162H40.6877V24.5742Z" fill="#1E1E1E"/>
<path d="M46.5166 24.3521V29.4771C46.5166 29.9003 46.6076 30.2017 46.7895 30.3816C46.9715 30.5508 47.2873 30.6354 47.7368 30.6354H48.8125V31.8572H47.496C46.6825 31.8572 46.0724 31.6721 45.6657 31.3018C45.2589 30.9316 45.0556 30.3234 45.0556 29.4771V24.3521H43.9156V23.162H45.0556V20.9724H46.5166V23.162H48.8125V24.3521H46.5166Z" fill="#1E1E1E"/>
<path d="M57.4481 31.9683C56.7096 31.9683 56.0459 31.8413 55.4572 31.5875C54.8792 31.323 54.4243 30.9633 54.0925 30.5085C53.7607 30.0431 53.5895 29.5089 53.5788 28.9059H55.1361C55.1897 29.4242 55.4037 29.8632 55.7784 30.2229C56.1637 30.572 56.7203 30.7465 57.4481 30.7465C58.1439 30.7465 58.6898 30.5772 59.0858 30.2388C59.4925 29.8897 59.6959 29.4454 59.6959 28.9059C59.6959 28.4828 59.5782 28.139 59.3427 27.8745C59.1072 27.6101 58.8128 27.4091 58.4596 27.2716C58.1064 27.1341 57.6301 26.986 57.0307 26.8273C56.2921 26.6369 55.6981 26.4465 55.2485 26.2561C54.8097 26.0657 54.4297 25.7695 54.1086 25.3675C53.7982 24.955 53.643 24.4049 53.643 23.7174C53.643 23.1144 53.7982 22.5802 54.1086 22.1148C54.419 21.6494 54.8525 21.2897 55.4091 21.0358C55.9764 20.7819 56.6239 20.655 57.3518 20.655C58.4008 20.655 59.257 20.9142 59.9207 21.4325C60.595 21.9508 60.975 22.6384 61.0606 23.4952H59.4551C59.4015 23.0721 59.1768 22.7019 58.7807 22.3845C58.3847 22.0566 57.8602 21.8926 57.2073 21.8926C56.5972 21.8926 56.0995 22.0513 55.7141 22.3687C55.3288 22.6754 55.1361 23.1091 55.1361 23.6698C55.1361 24.0717 55.2485 24.3997 55.4733 24.6535C55.7088 24.9074 55.9924 25.1031 56.3242 25.2406C56.6668 25.3675 57.1431 25.5156 57.7532 25.6849C58.4917 25.8859 59.0858 26.0869 59.5353 26.2878C59.9849 26.4782 60.3702 26.7797 60.6913 27.1923C61.0124 27.5942 61.173 28.1443 61.173 28.8424C61.173 29.3819 61.0285 29.8897 60.7395 30.3657C60.4505 30.8417 60.0224 31.2278 59.4551 31.524C58.8878 31.8202 58.2188 31.9683 57.4481 31.9683Z" fill="#1E1E1E"/>
<path d="M62.2955 27.4937C62.2955 26.5946 62.4775 25.8118 62.8414 25.1454C63.2053 24.4684 63.7084 23.9448 64.3506 23.5746C65.0035 23.2043 65.7474 23.0192 66.5823 23.0192C67.6634 23.0192 68.5518 23.2784 69.2475 23.7967C69.954 24.315 70.4196 25.0343 70.6444 25.9546H69.0709C68.9211 25.4257 68.6267 25.0079 68.1879 24.7011C67.7597 24.3944 67.2245 24.241 66.5823 24.241C65.7474 24.241 65.0731 24.5266 64.5593 25.0978C64.0455 25.6584 63.7887 26.4571 63.7887 27.4937C63.7887 28.541 64.0455 29.3502 64.5593 29.9214C65.0731 30.4926 65.7474 30.7782 66.5823 30.7782C67.2245 30.7782 67.7597 30.6301 68.1879 30.334C68.616 30.0378 68.9104 29.6146 69.0709 29.0646H70.6444C70.4089 29.9531 69.9379 30.6672 69.2315 31.2066C68.525 31.7355 67.642 32 66.5823 32C65.7474 32 65.0035 31.8149 64.3506 31.4447C63.7084 31.0744 63.2053 30.5508 62.8414 29.8738C62.4775 29.1968 62.2955 28.4035 62.2955 27.4937Z" fill="#1E1E1E"/>
<path d="M76.4793 23.0033C77.1429 23.0033 77.7423 23.1462 78.2775 23.4318C78.8127 23.7068 79.2301 24.1246 79.5298 24.6853C79.8402 25.2459 79.9954 25.9282 79.9954 26.7321V31.8572H78.5504V26.9384C78.5504 26.071 78.331 25.4099 77.8921 24.955C77.4533 24.4896 76.8539 24.2568 76.0939 24.2568C75.3233 24.2568 74.7078 24.4949 74.2476 24.9709C73.798 25.4469 73.5732 26.1397 73.5732 27.0495V31.8572H72.1122V20.1155H73.5732V24.3997C73.8622 23.9554 74.2583 23.6116 74.7613 23.3683C75.2751 23.125 75.8477 23.0033 76.4793 23.0033Z" fill="#1E1E1E"/>
<path d="M89.7033 23.162V31.8572H88.2423V30.572C87.964 31.0162 87.5733 31.3653 87.0702 31.6192C86.5779 31.8625 86.032 31.9841 85.4326 31.9841C84.7475 31.9841 84.1321 31.8466 83.5862 31.5716C83.0403 31.286 82.6068 30.8629 82.2857 30.3022C81.9753 29.7416 81.8201 29.0593 81.8201 28.2554V23.162H83.2651V28.065C83.2651 28.9218 83.4845 29.5829 83.9234 30.0483C84.3622 30.5032 84.9616 30.7306 85.7216 30.7306C86.5029 30.7306 87.1184 30.4926 87.5679 30.0166C88.0175 29.5406 88.2423 28.8477 88.2423 27.938V23.162H89.7033Z" fill="#1E1E1E"/>
<path d="M102.269 23.0033C102.954 23.0033 103.564 23.1462 104.099 23.4318C104.635 23.7068 105.057 24.1246 105.368 24.6853C105.678 25.2459 105.833 25.9282 105.833 26.7321V31.8572H104.388V26.9384C104.388 26.071 104.169 25.4099 103.73 24.955C103.302 24.4896 102.719 24.2568 101.98 24.2568C101.22 24.2568 100.615 24.5001 100.166 24.9867C99.7163 25.4627 99.4915 26.1556 99.4915 27.0653V31.8572H98.0465V26.9384C98.0465 26.071 97.8271 25.4099 97.3883 24.955C96.9601 24.4896 96.3768 24.2568 95.6382 24.2568C94.8783 24.2568 94.2735 24.5001 93.8239 24.9867C93.3744 25.4627 93.1496 26.1556 93.1496 27.0653V31.8572H91.6886V23.162H93.1496V24.4155C93.4386 23.9607 93.8239 23.6116 94.3056 23.3683C94.798 23.125 95.3385 23.0033 95.9272 23.0033C96.6658 23.0033 97.3187 23.1673 97.886 23.4952C98.4533 23.8231 98.8761 24.3044 99.1544 24.9391C99.4006 24.3256 99.8073 23.8496 100.375 23.5111C100.942 23.1726 101.573 23.0033 102.269 23.0033Z" fill="#1E1E1E"/>
<path d="M107.203 27.4779C107.203 26.5893 107.385 25.8118 107.748 25.1454C108.112 24.4684 108.61 23.9448 109.242 23.5746C109.884 23.2043 110.596 23.0192 111.377 23.0192C112.148 23.0192 112.817 23.1832 113.384 23.5111C113.951 23.839 114.374 24.2516 114.652 24.7487V23.162H116.129V31.8572H114.652V30.2388C114.363 30.7465 113.93 31.1696 113.352 31.5081C112.785 31.836 112.121 32 111.361 32C110.58 32 109.873 31.8096 109.242 31.4288C108.61 31.048 108.112 30.5138 107.748 29.8262C107.385 29.1386 107.203 28.3559 107.203 27.4779ZM114.652 27.4937C114.652 26.8379 114.518 26.2667 114.251 25.7801C113.983 25.2935 113.619 24.9233 113.159 24.6694C112.71 24.4049 112.212 24.2727 111.666 24.2727C111.12 24.2727 110.622 24.3997 110.173 24.6535C109.723 24.9074 109.365 25.2776 109.097 25.7642C108.829 26.2508 108.696 26.822 108.696 27.4779C108.696 28.1443 108.829 28.7261 109.097 29.2233C109.365 29.7098 109.723 30.0854 110.173 30.3498C110.622 30.6037 111.12 30.7306 111.666 30.7306C112.212 30.7306 112.71 30.6037 113.159 30.3498C113.619 30.0854 113.983 29.7098 114.251 29.2233C114.518 28.7261 114.652 28.1496 114.652 27.4937Z" fill="#1E1E1E"/>
<path d="M122.404 23.0033C123.474 23.0033 124.341 23.326 125.005 23.9712C125.668 24.6059 126 25.5262 126 26.7321V31.8572H124.555V26.9384C124.555 26.071 124.336 25.4099 123.897 24.955C123.458 24.4896 122.858 24.2568 122.099 24.2568C121.328 24.2568 120.712 24.4949 120.252 24.9709C119.803 25.4469 119.578 26.1397 119.578 27.0495V31.8572H118.117V23.162H119.578V24.3997C119.867 23.9554 120.257 23.6116 120.75 23.3683C121.253 23.125 121.804 23.0033 122.404 23.0033Z" fill="#1E1E1E"/>
</svg>
